<svg width="400" height="400" viewBox="0 0 400 400" fill="none" xmlns="http://www.w3.org/2000/svg">
<path d="M283.554 369L218.162 350.847L203.589 187.4H363.715L349.128 350.821L283.554 369Z" fill="#264DE4"/>
<path d="M336.639 340.415L349.105 200.764H283.652V355.105L336.639 340.415Z" fill="#2965F1"/>
<path d="M236.996 261.384L238.793 281.43H283.652V261.384H236.996Z" fill="#EBEBEB"/>
<path d="M233.386 220.81L235.209 240.856H283.652V220.81H233.386Z" fill="#EBEBEB"/>
<path d="M283.652 313.446L283.565 313.469L261.239 307.441L259.812 291.453H239.689L242.497 322.929L283.56 334.328L283.652 334.302V313.446Z" fill="#EBEBEB"/>
<path d="M241.274 142.982H265.553V153.135H251.427V163.288H265.553V173.441H241.274V142.982Z" fill="black"/>
<path d="M270.409 142.982H294.688V151.811H280.562V153.576H294.688V173.883H270.409V164.612H284.535V162.847H270.409V142.982Z" fill="black"/>
<path d="M299.544 142.982H323.824V151.811H309.698V153.576H323.824V173.883H299.544V164.612H313.671V162.847H299.544V142.982Z" fill="black"/>
<path d="M330.18 261.384L333.799 220.81H283.583V240.856H311.83L310.006 261.384H283.583V281.43H308.268L305.941 307.428L283.583 313.463V334.318L324.679 322.928L329.691 266.767L330.18 261.384Z" fill="white"/>
<path d="M196.126 74.4179L181.538 237.839L115.965 256.018L50.5724 237.865L36 74.4179H196.126Z" fill="#E44D26"/>
<path d="M116.063 242.123L169.049 227.433L181.516 87.7822H116.063V242.123Z" fill="#F16529"/>
<path d="M87.7048 127.875H116.063V107.828H65.7969L71.2037 168.448H116.063V148.402H89.5368L87.7048 127.875Z" fill="#EBEBEB"/>
<path d="M92.2225 178.472H72.0994L74.9078 209.947L115.971 221.346L116.063 221.321V200.464L115.975 200.488L93.6497 194.459L92.2225 178.472Z" fill="#EBEBEB"/>
<path d="M50.8983 30H61.0854V40.0649H70.4043V30H80.5919V60.4789H70.4047V50.2728H61.0859V60.4789H50.8987L50.8983 30Z" fill="black"/>
<path d="M93.9883 40.1073H85.0199V30H113.149V40.1073H104.176V60.4789H93.9887L93.9883 40.1073Z" fill="black"/>
<path d="M117.613 30H128.235L134.77 40.7094L141.297 30H151.924V60.4789H141.778V45.3719L134.77 56.2089H134.594L127.581 45.3719V60.4789H117.613V30Z" fill="black"/>
<path d="M156.994 30H167.184V50.4043H181.51V60.4789H156.994V30Z" fill="black"/>
<path d="M115.994 168.448H140.678L138.351 194.447L115.994 200.481V221.337L157.089 209.947L162.101 153.785L162.591 148.402H115.994V168.448Z" fill="white"/>
<path d="M115.994 127.875H164.415L166.21 107.828H115.994V127.875Z" fill="white"/>
</svg>
