<svg width="400" height="400" viewBox="0 0 400 400" fill="none" xmlns="http://www.w3.org/2000/svg">
<path d="M305.401 400L228.23 378.564L211.032 185.557H400L382.786 378.533L305.401 400Z" fill="#264DE4"/>
<path d="M368.057 366.241L382.768 201.334H305.526V383.588L368.057 366.241Z" fill="#2965F1"/>
<path d="M250.462 272.919L252.583 296.59H305.522V272.919H250.462Z" fill="#EBEBEB"/>
<path d="M246.197 225.008L248.348 248.68H305.517V225.008H246.197Z" fill="#EBEBEB"/>
<path d="M305.538 334.398L305.435 334.425L279.088 327.307L277.404 308.427H253.656L256.97 345.596L305.429 359.056L305.538 359.025V334.398Z" fill="#EBEBEB"/>
<path d="M255.515 133.103H284.167V145.092H267.497V157.082H284.167V169.071H255.515V133.103Z" fill="black"/>
<path d="M289.898 133.103H318.55V143.529H301.88V145.613H318.55V169.593H289.898V158.645H306.568V156.561H289.898V133.103Z" fill="black"/>
<path d="M324.28 133.103H352.933V143.529H336.263V145.613H352.933V169.593H324.28V158.645H340.951V156.561H324.28V133.103Z" fill="black"/>
<path d="M360.447 272.92L364.718 225.008H305.457V248.68H338.792L336.639 272.92H305.457V296.592H334.588L331.842 327.291L305.457 334.418V359.045L353.955 345.595L359.87 279.277L360.447 272.92Z" fill="white"/>
<path d="M188.968 52.4484L171.752 245.425L94.3682 266.891L17.1972 245.455L0 52.4484H188.968Z" fill="#E44D26"/>
<path d="M94.4788 250.484L157.008 233.137L171.721 68.2302H94.4788V250.484Z" fill="#F16529"/>
<path d="M61.0177 115.578H94.4837V91.9058H35.1638L41.5445 163.489H94.4837V139.818H63.1797L61.0177 115.578Z" fill="#EBEBEB"/>
<path d="M66.3467 175.325H42.5991L45.9134 212.492L94.3727 225.953L94.4813 225.923V201.294L94.3774 201.322L68.031 194.203L66.3467 175.325Z" fill="#EBEBEB"/>
<path d="M17.5815 0H29.6035V11.8852H40.6009V0H52.6235V35.9911H40.6014V23.9392H29.6041V35.9911H17.582L17.5815 0Z" fill="black"/>
<path d="M68.429 11.9352H57.8452V0H91.0409V11.9352H80.4517V35.9911H68.4295L68.429 11.9352Z" fill="black"/>
<path d="M96.3118 0H108.847L116.559 12.6462L124.262 0H136.803V35.9911H124.829V18.152L116.559 30.9489H116.351L108.075 18.152V35.9911H96.3118V0Z" fill="black"/>
<path d="M142.789 0H154.814V24.0945H171.721V35.9911H142.789V0Z" fill="black"/>
<path d="M94.4065 163.486H123.537L120.79 194.187L94.4065 201.312V225.94L142.903 212.49L148.818 146.171L149.396 139.814H94.4065V163.486Z" fill="white"/>
<path d="M94.4065 115.578H151.549L153.667 91.9058H94.4065V115.578Z" fill="white"/>
</svg>
