<svg width="400" height="400" viewBox="0 0 400 400" fill="none" xmlns="http://www.w3.org/2000/svg">
<path d="M333.594 0H66.4062C29.7311 0 0 30.4934 0 68.1089V331.891C0 369.507 29.7311 400 66.4062 400H333.594C370.269 400 400 369.507 400 331.891V68.1089C400 30.4934 370.269 0 333.594 0Z" fill="#330000"/>
<path d="M193.834 240.048H131.849L119.237 280.23C118.883 281.742 117.531 282.781 116.017 282.707H84.6225C82.8321 282.707 82.206 281.697 82.7442 279.679L136.41 121.156C136.947 119.505 137.484 117.625 138.021 115.514C138.723 111.842 139.082 108.11 139.094 104.368C139.02 103.838 139.194 103.303 139.564 102.923C139.933 102.544 140.455 102.366 140.972 102.442H183.637C184.887 102.442 185.602 102.9 185.784 103.817L246.696 279.954C247.232 281.791 246.695 282.708 245.085 282.707H210.202C208.962 282.847 207.814 282.023 207.519 280.781L193.834 240.048ZM141.509 205.371H183.905L183.302 203.325L182.331 200.084L181.639 197.81L180.535 194.227L178.186 186.683L176.12 179.995L170.757 162.575C169.377 158.093 168.096 153.747 166.913 149.534L165.931 145.994L164.784 141.805L163.033 135.316C162.923 134.904 162.815 134.495 162.708 134.091H162.439C161.096 140.698 159.461 147.239 157.539 153.692L153.557 166.825L151.367 174.081L149.156 181.428C148.757 182.755 148.359 184.067 147.962 185.363L146.774 189.207L145.592 192.96L144.417 196.621L143.249 200.19C142.861 201.364 142.473 202.523 142.087 203.668L141.509 205.371ZM282.917 131.614C277.382 131.842 272.014 129.64 268.159 125.56C264.32 121.309 262.292 115.663 262.524 109.873C262.326 104.132 264.522 98.5771 268.561 94.5981C272.418 90.8011 277.55 88.684 282.882 88.6741L283.454 88.6811C289.894 88.6811 294.948 90.6534 298.615 94.5981C302.353 98.7383 304.332 104.234 304.115 109.873C304.342 115.687 302.26 121.348 298.346 125.56C294.389 129.56 289.03 131.745 283.491 131.634L282.917 131.614ZM264.402 279.954V148.402C264.402 146.751 265.115 145.925 266.549 145.925H299.554C300.984 145.925 301.699 146.751 301.701 148.402V279.954C301.701 281.791 300.985 282.708 299.554 282.707H266.817C265.292 282.707 264.489 281.883 264.409 280.236L264.402 279.954Z" fill="#FF9A00"/>
</svg>
