<svg width="400" height="390" viewBox="0 0 400 390" fill="none" xmlns="http://www.w3.org/2000/svg">
<path d="M333.594 0H66.4062C29.7311 0 0 29.7311 0 66.4062V323.594C0 360.269 29.7311 390 66.4062 390H333.594C370.269 390 400 360.269 400 323.594V66.4062C400 29.7311 370.269 0 333.594 0Z" fill="#330000"/>
<path d="M193.834 234.047H131.849L119.237 273.224C118.883 274.698 117.531 275.711 116.017 275.639H84.6224C82.832 275.639 82.2059 274.655 82.7441 272.687L136.41 118.127C136.947 116.517 137.484 114.684 138.021 112.626C138.723 109.046 139.082 105.407 139.094 101.759C139.02 101.242 139.194 100.72 139.564 100.35C139.933 99.9808 140.455 99.8068 140.972 99.8805H183.637C184.887 99.8805 185.602 100.328 185.784 101.222L246.696 272.955C247.232 274.746 246.695 275.64 245.085 275.639H210.202C208.962 275.776 207.814 274.972 207.519 273.761L193.834 234.047ZM141.509 200.237H183.905L183.302 198.242L182.331 195.082L181.639 192.865L180.535 189.371L178.186 182.016L176.12 175.495L170.757 158.511C169.377 154.141 168.096 149.903 166.913 145.796L165.931 142.344L164.784 138.26L163.033 131.933C162.923 131.531 162.815 131.133 162.708 130.739H162.439C161.096 137.181 159.461 143.558 157.539 149.85L153.557 162.654L151.367 169.729L149.156 176.892C148.757 178.186 148.359 179.465 147.962 180.729L146.774 184.477L145.592 188.136L144.417 191.705L143.249 195.185C142.861 196.33 142.473 197.46 142.087 198.576L141.509 200.237ZM282.917 128.324C277.382 128.546 272.014 126.399 268.159 122.421C264.32 118.276 262.292 112.771 262.524 107.126C262.326 101.529 264.522 96.1127 268.561 92.2332C272.418 88.5311 277.55 86.4669 282.882 86.4573L283.454 86.4641C289.894 86.4641 294.948 88.3871 298.615 92.2332C302.353 96.2699 304.332 101.628 304.115 107.126C304.342 112.795 302.26 118.314 298.346 122.421C294.389 126.321 289.03 128.451 283.491 128.343L282.917 128.324ZM264.402 272.955V144.692C264.402 143.082 265.115 142.277 266.549 142.277H299.554C300.984 142.277 301.699 143.082 301.701 144.692V272.955C301.701 274.746 300.985 275.64 299.554 275.639H266.817C265.292 275.639 264.489 274.836 264.409 273.23L264.402 272.955Z" fill="#FF9A00"/>
</svg>
