<svg width="400" height="400" viewBox="0 0 400 400" fill="none" xmlns="http://www.w3.org/2000/svg">
<path d="M333.594 0H66.4062C29.7311 0 0 30.4934 0 68.1089V331.891C0 369.507 29.7311 400 66.4062 400H333.594C370.269 400 400 369.507 400 331.891V68.1089C400 30.4934 370.269 0 333.594 0Z" fill="#001E36"/>
<path d="M90.0693 280.505V104.643C90.0693 103.361 90.6064 102.717 91.6799 102.717L93.378 102.712L96.281 102.679L100.316 102.597L113.832 102.304L128.323 102.029C133.42 101.938 138.474 101.891 143.483 101.891C157.076 101.891 168.525 103.634 177.829 107.12C186.223 110.032 193.877 114.827 200.236 121.156C205.626 126.642 209.791 133.262 212.445 140.559C214.955 147.66 216.227 155.159 216.203 162.713C216.203 177.394 212.892 189.504 206.274 199.041C199.796 208.353 190.764 215.466 180.337 219.483L179.44 219.819C168.545 223.99 156.48 225.495 143.246 225.591L141.191 225.595L138.14 225.578L136.599 225.557L134.884 225.515L133.851 225.474L133.222 225.441L131.677 225.383L129.788 225.344L126.943 225.321C126.736 225.321 126.525 225.321 126.31 225.32V280.23C126.405 280.912 126.181 281.6 125.706 282.087C125.231 282.574 124.56 282.804 123.895 282.707H91.9476C90.6943 282.707 90.0693 281.975 90.0693 280.505ZM126.31 135.743V193.101C128.633 193.286 130.779 193.377 132.75 193.376H141.605C147.713 193.355 153.783 192.423 159.626 190.609L160.791 190.235C166.107 188.615 170.857 185.463 174.476 181.153C177.839 177.085 179.581 171.48 179.702 164.338L179.709 163.54C179.85 158.215 178.499 152.962 175.817 148.402C172.997 143.993 168.922 140.582 164.145 138.632C157.907 136.146 151.245 134.975 144.556 135.192L141.153 135.202L139.007 135.221L136.958 135.247L134.067 135.306L131.959 135.367L130.862 135.408L129.398 135.478L128.151 135.557L127.441 135.614L126.827 135.677C126.733 135.687 126.643 135.697 126.556 135.709L126.31 135.743ZM319.952 182.672C315.269 180.204 310.304 178.351 305.173 177.156L303.986 176.892C298.339 175.563 292.575 174.832 286.785 174.709L285.337 174.69C281.941 174.596 278.551 175.013 275.274 175.929C273.188 176.405 271.334 177.624 270.041 179.369C269.167 180.765 268.701 182.389 268.7 184.047C268.749 185.657 269.315 187.205 270.31 188.451C271.735 190.16 273.447 191.592 275.364 192.677L275.945 192.992C279.771 195.105 283.713 196.989 287.751 198.634C296.757 201.726 305.362 205.93 313.377 211.156C318.837 214.69 323.355 219.561 326.526 225.329C329.192 230.792 330.527 236.836 330.417 242.944C330.577 251.008 328.33 258.93 323.977 265.648C319.316 272.468 312.843 277.77 305.327 280.923C297.456 284.469 287.791 286.302 276.332 286.42L275.14 286.428C268.035 286.5 260.942 285.863 253.96 284.523L252.466 284.226C246.586 283.12 240.863 281.271 235.426 278.721C234.309 278.129 233.596 276.968 233.548 275.693V245.695C233.482 245.103 233.74 244.52 234.219 244.182C234.691 243.908 235.279 243.963 235.695 244.319C242.115 248.202 249.086 251.034 256.356 252.713C262.765 254.361 269.339 255.238 275.945 255.328C282.204 255.328 286.811 254.503 289.764 252.851C292.488 251.572 294.223 248.768 294.192 245.695C294.192 243.313 292.85 241.019 290.167 238.815C289.042 237.892 287.429 236.888 285.328 235.803L284.324 235.296L283.251 234.779C283.066 234.691 282.878 234.604 282.688 234.516L281.511 233.981C281.309 233.89 281.104 233.8 280.896 233.709L279.615 233.157C279.396 233.064 279.174 232.97 278.949 232.877L277.564 232.308C277.327 232.211 277.087 232.115 276.845 232.018L275.356 231.432L273.798 230.834C265.372 227.826 257.384 223.659 250.05 218.449C244.805 214.708 240.486 209.76 237.439 204C234.8 198.577 233.466 192.585 233.548 186.524C233.533 179.243 235.483 172.098 239.183 165.883C243.401 159.039 249.458 153.592 256.625 150.196C264.495 146.163 274.333 144.145 286.142 144.142C293.057 144.084 299.966 144.591 306.803 145.655C311.755 146.3 316.595 147.642 321.188 149.646C321.926 149.864 322.522 150.424 322.798 151.16C322.979 151.832 323.069 152.526 323.066 153.224V181.021C323.104 181.678 322.797 182.308 322.261 182.672C321.534 183.043 320.679 183.043 319.952 182.672Z" fill="#31A8FF"/>
</svg>
