<svg width="400" height="390" viewBox="0 0 400 390" fill="none" xmlns="http://www.w3.org/2000/svg">
<path d="M333.594 0H66.4062C29.7311 0 0 29.7311 0 66.4062V323.594C0 360.269 29.7311 390 66.4062 390H333.594C370.269 390 400 360.269 400 323.594V66.4062C400 29.7311 370.269 0 333.594 0Z" fill="#001E36"/>
<path d="M90.0693 273.492V102.027C90.0693 100.777 90.6064 100.149 91.6799 100.149L93.378 100.144L96.281 100.112L100.316 100.032L113.832 99.7463L128.323 99.4778C133.42 99.3899 138.474 99.3435 143.483 99.3435C157.076 99.3435 168.525 101.043 177.829 104.442C186.223 107.281 193.877 111.956 200.236 118.127C205.626 123.476 209.791 129.93 212.445 137.045C214.955 143.968 216.227 151.28 216.203 158.645C216.203 172.959 212.892 184.766 206.274 194.065C199.796 203.144 190.764 210.079 180.337 213.996L179.44 214.324C168.545 218.39 156.48 219.858 143.246 219.951L141.191 219.955L138.14 219.939L136.599 219.918L134.884 219.877L133.851 219.837L133.222 219.805L131.677 219.748L129.788 219.71L126.943 219.688C126.736 219.688 126.525 219.688 126.31 219.687V273.224C126.405 273.889 126.181 274.56 125.706 275.035C125.231 275.51 124.56 275.734 123.895 275.639H91.9476C90.6943 275.639 90.0693 274.926 90.0693 273.492ZM126.31 132.349V188.273C128.633 188.454 130.779 188.543 132.75 188.542H141.605C147.713 188.521 153.783 187.612 159.626 185.844L160.791 185.479C166.107 183.9 170.857 180.826 174.476 176.624C177.839 172.658 179.581 167.193 179.702 160.23L179.709 159.451C179.85 154.26 178.499 149.138 175.817 144.692C172.997 140.393 168.922 137.067 164.145 135.166C157.907 132.742 151.245 131.601 144.556 131.812L141.153 131.822L139.007 131.84L136.958 131.866L134.067 131.923L131.959 131.983L130.862 132.023L129.398 132.091L128.151 132.168L127.441 132.224L126.827 132.285C126.733 132.295 126.643 132.305 126.556 132.316L126.31 132.349ZM319.952 178.105C315.269 175.699 310.304 173.892 305.173 172.727L303.986 172.47C298.339 171.174 292.575 170.461 286.785 170.341L285.337 170.323C281.941 170.231 278.551 170.638 275.274 171.531C273.188 171.995 271.334 173.183 270.041 174.885C269.167 176.246 268.701 177.829 268.7 179.446C268.749 181.016 269.315 182.525 270.31 183.74C271.735 185.406 273.447 186.802 275.364 187.86L275.945 188.167C279.771 190.227 283.713 192.064 287.751 193.668C296.757 196.683 305.362 200.782 313.377 205.877C318.837 209.323 323.355 214.072 326.526 219.696C329.192 225.022 330.527 230.915 330.417 236.87C330.577 244.733 328.33 252.457 323.977 259.007C319.316 265.656 312.843 270.826 305.327 273.9C297.456 277.357 287.791 279.144 276.332 279.26L275.14 279.267C268.035 279.338 260.942 278.716 253.96 277.41L252.466 277.12C246.586 276.042 240.863 274.239 235.426 271.753C234.309 271.176 233.596 270.044 233.548 268.801L233.548 239.553C233.482 238.975 233.74 238.407 234.219 238.077C234.691 237.81 235.279 237.864 235.695 238.211C242.115 241.997 249.086 244.758 256.356 246.395C262.765 248.002 269.339 248.857 275.945 248.945C282.204 248.945 286.811 248.14 289.764 246.53C292.488 245.283 294.223 242.549 294.192 239.553C294.192 237.23 292.85 234.994 290.167 232.845C289.042 231.945 287.429 230.966 285.328 229.908L284.324 229.414L283.251 228.91C283.066 228.824 282.878 228.739 282.688 228.653L281.511 228.131C281.309 228.043 281.104 227.955 280.896 227.866L279.615 227.328C279.396 227.237 279.174 227.146 278.949 227.055L277.564 226.5C277.327 226.406 277.087 226.312 276.845 226.218L275.356 225.646L273.798 225.063C265.372 222.13 257.384 218.068 250.05 212.988C244.805 209.34 240.486 204.516 237.439 198.9C234.8 193.613 233.466 187.77 233.548 181.861C233.533 174.762 235.483 167.796 239.183 161.736C243.401 155.063 249.458 149.752 256.625 146.441C264.495 142.509 274.333 140.541 286.142 140.538C293.057 140.482 299.966 140.976 306.803 142.014C311.755 142.642 316.595 143.951 321.188 145.905C321.926 146.117 322.522 146.663 322.798 147.381C322.979 148.036 323.069 148.713 323.066 149.393V176.495C323.104 177.136 322.797 177.75 322.261 178.105C321.534 178.467 320.679 178.467 319.952 178.105Z" fill="#31A8FF"/>
</svg>
